<svg preserveAspectRatio="none" width="100%" height="100%" overflow="visible" style="display: block;" viewBox="0 0 17.2391 17.2459" fill="none" xmlns="http://www.w3.org/2000/svg">
<g id="Group">
<path id="Vector" d="M8.62463 1.55311C10.929 1.55311 11.2019 1.56321 12.1082 1.60364C12.9504 1.6407 13.4052 1.7822 13.7084 1.90011C14.1093 2.05509 14.3991 2.24375 14.6989 2.54359C15.0021 2.8468 15.1874 3.13316 15.3424 3.53407C15.4603 3.83728 15.6018 4.29547 15.6389 5.13435C15.6793 6.04397 15.6894 6.31686 15.6894 8.61789C15.6894 10.9223 15.6793 11.1952 15.6389 12.1014C15.6018 12.9437 15.4603 13.3985 15.3424 13.7017C15.1874 14.1026 14.9988 14.3923 14.6989 14.6922C14.3957 14.9954 14.1093 15.1807 13.7084 15.3357C13.4052 15.4536 12.947 15.5951 12.1082 15.6321C11.1985 15.6726 10.9257 15.6827 8.62463 15.6827C6.32023 15.6827 6.04735 15.6726 5.14109 15.6321C4.29884 15.5951 3.84402 15.4536 3.54081 15.3357C3.1399 15.1807 2.85017 14.992 2.55033 14.6922C2.24712 14.389 2.06182 14.1026 1.90685 13.7017C1.78894 13.3985 1.64744 12.9403 1.61038 12.1014C1.56995 11.1918 1.55984 10.9189 1.55984 8.61789C1.55984 6.31349 1.56995 6.04061 1.61038 5.13435C1.64744 4.2921 1.78894 3.83728 1.90685 3.53407C2.06182 3.13316 2.25049 2.84343 2.55033 2.54359C2.85354 2.24038 3.1399 2.05509 3.54081 1.90011C3.84402 1.7822 4.30221 1.6407 5.14109 1.60364C6.04735 1.56321 6.32023 1.55311 8.62463 1.55311ZM8.62463 0C6.28318 0 5.99007 0.010107 5.07034 0.0505349C4.15397 0.0909628 3.52397 0.239199 2.97819 0.451445C2.40883 0.673799 1.92707 0.966901 1.44867 1.44867C0.966902 1.92706 0.673799 2.40883 0.451445 2.97482C0.239199 3.52397 0.0909629 4.1506 0.0505349 5.06697C0.010107 5.99007 0 6.28317 0 8.62462C0 10.9661 0.010107 11.2592 0.0505349 12.1789C0.0909629 13.0953 0.239199 13.7253 0.451445 14.2711C0.673799 14.8404 0.966902 15.3222 1.44867 15.8006C1.92707 16.279 2.40883 16.5755 2.97482 16.7944C3.52397 17.0067 4.1506 17.1549 5.06697 17.1953C5.9867 17.2358 6.27981 17.2459 8.62126 17.2459C10.9627 17.2459 11.2558 17.2358 12.1755 17.1953C13.0919 17.1549 13.7219 17.0067 14.2677 16.7944C14.8337 16.5755 15.3154 16.279 15.7938 15.8006C16.2722 15.3222 16.5687 14.8404 16.7877 14.2744C16.9999 13.7253 17.1482 13.0986 17.1886 12.1823C17.229 11.2625 17.2391 10.9694 17.2391 8.62799C17.2391 6.28654 17.229 5.99344 17.1886 5.07371C17.1482 4.15734 16.9999 3.52734 16.7877 2.98156C16.5755 2.40883 16.2824 1.92706 15.8006 1.44867C15.3222 0.97027 14.8404 0.673799 14.2744 0.454814C13.7253 0.242568 13.0987 0.0943318 12.1823 0.0539039C11.2592 0.010107 10.9661 0 8.62463 0Z" fill="var(--fill-0, #030303)"/>
<path id="Vector_2" d="M8.62462 4.1944C6.17873 4.1944 4.1944 6.17873 4.1944 8.62462C4.1944 11.0705 6.17873 13.0549 8.62462 13.0549C11.0705 13.0549 13.0549 11.0705 13.0549 8.62462C13.0549 6.17873 11.0705 4.1944 8.62462 4.1944ZM8.62462 11.4984C7.03783 11.4984 5.75087 10.2114 5.75087 8.62462C5.75087 7.03783 7.03783 5.75087 8.62462 5.75087C10.2114 5.75087 11.4984 7.03783 11.4984 8.62462C11.4984 10.2114 10.2114 11.4984 8.62462 11.4984Z" fill="var(--fill-0, #030303)"/>
<path id="Vector_3" d="M14.2643 4.01936C14.2643 4.59209 13.7994 5.05364 13.23 5.05364C12.6573 5.05364 12.1958 4.58872 12.1958 4.01936C12.1958 3.44663 12.6607 2.98507 13.23 2.98507C13.7994 2.98507 14.2643 3.45 14.2643 4.01936Z" fill="var(--fill-0, #030303)"/>
</g>
</svg>
