<svg preserveAspectRatio="none" width="100%" height="100%" overflow="visible" style="display: block;" viewBox="0 0 42 42" fill="none" xmlns="http://www.w3.org/2000/svg">
<g id="Simplification">
<path id="Vector" d="M20.918 3.19922C20.9992 3.19922 21.0804 3.19922 21.1641 3.19922C21.2017 3.27837 21.2017 3.27837 21.24 3.35912C22.0312 4.92141 23.3372 6.01684 24.9993 6.58589C26.4867 7.02595 27.8068 6.93941 29.2852 6.5625C29.3884 6.85576 29.3422 7.03754 29.2544 7.33154C28.7977 9.0701 29.1374 10.8225 30.018 12.3707C30.7279 13.4685 31.6404 14.2587 32.8125 14.8477C32.705 15.1701 32.5918 15.1857 32.2947 15.3398C31.7026 15.6729 31.2407 16.0921 30.7617 16.5703C30.7129 16.6182 30.664 16.6661 30.6137 16.7155C29.5198 17.8832 29.0377 19.571 29.0394 21.1394C29.0684 21.7002 29.1618 22.2222 29.3162 22.7617C29.3672 22.9688 29.3672 22.9688 29.3672 23.2969C29.3213 23.2869 29.2754 23.277 29.2281 23.2668C27.1385 22.83 25.3154 22.9032 23.4484 24.0396C23.0616 24.3039 22.7253 24.6067 22.3945 24.9375C22.3372 24.9948 22.2799 25.0521 22.2209 25.1112C21.7561 25.6048 21.4213 26.1584 21.082 26.7422C20.838 26.5145 20.6701 26.2917 20.5027 26.0039C19.5593 24.506 18.1385 23.5227 16.4165 23.1072C16.3041 23.0863 16.1912 23.0675 16.0781 23.0508C16.0179 23.0418 15.9576 23.0328 15.8955 23.0235C15.7103 22.9997 15.526 22.9825 15.3398 22.9688C15.2599 22.9621 15.2599 22.9621 15.1783 22.9553C14.5657 22.9294 13.9652 23.0707 13.3665 23.185C13.1498 23.2256 12.9324 23.2616 12.7148 23.2969C12.7513 22.9206 12.794 22.5617 12.884 22.1946C13.2174 20.5681 12.8338 18.8959 12.0016 17.4826C11.8648 17.2794 11.7207 17.0887 11.5664 16.8984C11.5127 16.8304 11.459 16.7625 11.4036 16.6924C10.9244 16.1214 10.3834 15.7408 9.76172 15.3398C9.59734 15.2309 9.43345 15.1213 9.26953 15.0117C9.37703 14.6892 9.4902 14.6737 9.78735 14.5195C11.2929 13.6666 12.3266 12.2224 12.7891 10.566C13.0713 9.44413 13.0347 8.34965 12.7687 7.22997C12.7201 6.99774 12.7042 6.79853 12.7148 6.5625C12.8697 6.59803 12.8697 6.59803 13.0276 6.63428C14.9677 7.06246 16.7814 6.95658 18.5048 5.89471C19.5121 5.24089 20.141 4.45343 20.7539 3.44531C20.808 3.3641 20.8622 3.28289 20.918 3.19922ZM16.4062 10.8281C15.5277 11.8677 14.9388 13.1517 14.8477 14.5195C14.8434 14.5765 14.8392 14.6335 14.8348 14.6922C14.7644 16.4446 15.45 17.9418 16.5857 19.2357C17.6895 20.4065 19.2343 21.0574 20.831 21.1151C22.5129 21.139 24.0389 20.5661 25.2794 19.4225C26.4919 18.2367 27.1737 16.6732 27.1934 14.9758C27.1744 13.2006 26.5041 11.7712 25.2861 10.4897C24.0588 9.29214 22.4324 8.7421 20.7385 8.76004C19.0277 8.85469 17.5893 9.61594 16.4062 10.8281Z" fill="var(--fill-0, white)"/>
<path id="Vector_2" d="M4.77228 12.267C5.14856 12.5684 5.29952 12.9747 5.41242 13.4292C5.43252 13.5084 5.43252 13.5084 5.45302 13.5892C5.49692 13.7632 5.53947 13.9374 5.58201 14.1117C5.61299 14.2356 5.64406 14.3593 5.67521 14.4831C5.75725 14.81 5.83815 15.1372 5.9188 15.4645C5.9986 15.7876 6.07935 16.1105 6.16008 16.4335C6.19197 16.5611 6.22385 16.6888 6.25574 16.8165C6.27148 16.8795 6.28722 16.9425 6.30343 17.0074C6.36684 17.2614 6.43016 17.5154 6.49348 17.7693C6.55575 18.019 6.6181 18.2687 6.68045 18.5183C6.72652 18.7029 6.77248 18.8876 6.81843 19.0722C6.89155 19.3657 6.96539 19.6589 7.03975 19.9521C7.07989 20.111 7.11938 20.2701 7.15884 20.4291C7.56123 22.0075 8.35971 23.0744 9.51054 24.2045C9.59096 24.2841 9.67133 24.3637 9.75167 24.4434C9.94607 24.6358 10.1408 24.8279 10.336 25.0197C10.3073 25.075 10.2786 25.1304 10.249 25.1874C10.2116 25.2605 10.1742 25.3336 10.1357 25.409C10.0985 25.4813 10.0614 25.5535 10.0231 25.628C9.80344 26.1068 9.82866 26.541 9.93704 27.048C10.282 27.9564 11.2638 28.5972 12.0116 29.1751C12.4096 29.4828 12.799 29.8002 13.1866 30.121C13.8534 30.6721 14.5228 31.2177 15.2117 31.7411C15.2928 31.8027 15.3739 31.8644 15.4575 31.9279C15.663 32.0855 15.663 32.0855 15.9141 32.1564C16.0958 32.1203 16.0958 32.1203 16.2422 31.9923C16.3236 31.6982 16.3394 31.5455 16.2422 31.254C16.1345 31.1961 16.0248 31.142 15.9141 31.09C15.7818 30.9889 15.6522 30.8841 15.5245 30.7772C15.445 30.7114 15.3656 30.6455 15.2838 30.5776C15.2404 30.5414 15.1969 30.5053 15.1522 30.4681C14.8931 30.2533 14.632 30.041 14.3709 29.8287C14.315 29.7833 14.2591 29.7378 14.2015 29.6909C13.8406 29.3979 13.4764 29.1095 13.1097 28.8239C12.6381 28.4562 12.1797 28.075 11.7254 27.6863C11.5563 27.542 11.3864 27.3999 11.2146 27.2589C10.9065 26.9978 10.8425 26.8687 10.7974 26.4706C10.8402 26.0497 10.9631 25.7518 11.2896 25.4849C11.7594 25.207 12.2655 25.185 12.7969 25.2658C13.0528 25.362 13.2425 25.5034 13.4532 25.6759C13.5174 25.7268 13.5815 25.7776 13.6477 25.83C13.8402 25.9854 14.0306 26.1431 14.2204 26.3018C14.4774 26.5156 14.737 26.7263 14.9964 26.9371C15.0523 26.9827 15.1082 27.0282 15.1658 27.075C15.5267 27.368 15.8909 27.6564 16.2576 27.942C16.6744 28.2669 17.0797 28.6027 17.4809 28.9466C17.8045 29.2226 18.1364 29.486 18.4725 29.7467C19.3159 30.4065 20.0197 31.016 20.5079 31.9923C20.5388 32.2988 20.5435 32.6074 20.554 32.9152C20.5575 33.0147 20.561 33.1143 20.5646 33.2169C20.6226 35.077 20.5966 36.9402 20.5899 38.8009C19.6251 38.8066 18.6603 38.811 17.6955 38.8137C17.2475 38.8149 16.7995 38.8167 16.3515 38.8195C15.9191 38.8222 15.4867 38.8236 15.0542 38.8243C14.8893 38.8247 14.7244 38.8256 14.5595 38.8269C14.3284 38.8287 14.0973 38.829 13.8662 38.8289C13.7641 38.8302 13.7641 38.8302 13.66 38.8315C13.2006 38.8291 12.8533 38.7512 12.498 38.4347C12.1831 38.0377 12.1368 37.7852 12.1169 37.2848C12.041 35.4417 11.0792 34.4911 9.84379 33.2228C9.78386 33.1611 9.72393 33.0993 9.66219 33.0357C9.05909 32.4167 8.45881 31.8133 7.77795 31.279C7.31391 30.8993 6.8835 30.4813 6.44979 30.0677C6.34261 29.9663 6.23353 29.8669 6.12387 29.7682C3.03715 26.9096 2.98299 21.8463 2.72293 17.9555C2.70596 17.7022 2.68868 17.4489 2.67139 17.1956C2.64037 16.7388 2.61031 16.2819 2.58093 15.825C2.56942 15.6466 2.55773 15.4683 2.54585 15.29C2.5293 15.0395 2.51361 14.7889 2.49815 14.5382C2.49313 14.4643 2.4881 14.3903 2.48293 14.3141C2.40678 13.0255 2.40678 13.0255 2.78911 12.5509C3.3928 11.9687 4.02812 11.9019 4.77228 12.267Z" fill="var(--fill-0, white)"/>
<path id="Vector_3" d="M38.7401 12.156C39.1788 12.4451 39.4072 12.6968 39.5399 13.207C39.5473 13.4803 39.5473 13.4803 39.5287 13.7835C39.5239 13.8677 39.5239 13.8677 39.519 13.9536C39.5081 14.1406 39.4958 14.3275 39.4835 14.5144C39.4753 14.6481 39.4672 14.7819 39.4591 14.9157C39.4415 15.2044 39.4233 15.4932 39.4048 15.7819C39.3798 16.1741 39.357 16.5664 39.3348 16.9588C38.7569 27.1634 38.7569 27.1634 34.9461 30.6797C34.7284 30.8643 34.5067 31.0425 34.2835 31.2202C33.5049 31.8625 32.7897 32.583 32.075 33.2944C32.0181 33.3509 31.9612 33.4075 31.9026 33.4657C30.6906 34.6815 29.935 35.6722 29.8935 37.4229C29.851 37.82 29.7578 38.1417 29.4911 38.4515C29.051 38.7838 28.7312 38.8127 28.1954 38.8114C28.0913 38.8116 28.0913 38.8116 27.9851 38.8118C27.7555 38.8122 27.526 38.8119 27.2964 38.8117C27.1371 38.8117 26.9779 38.8118 26.8186 38.8119C26.4848 38.812 26.151 38.8118 25.8171 38.8115C25.3885 38.811 24.96 38.8113 24.5314 38.8117C24.2025 38.812 23.8737 38.8119 23.5448 38.8117C23.3868 38.8117 23.2287 38.8117 23.0706 38.8119C22.8501 38.8121 22.6295 38.8118 22.4089 38.8114C22.3103 38.8116 22.3103 38.8116 22.2097 38.8119C21.7578 38.8101 21.7578 38.8101 21.575 38.7187C21.5427 37.8131 21.5186 36.9074 21.4985 36.0014C21.4928 35.7575 21.4864 35.5137 21.4799 35.2699C21.4689 34.8467 21.4614 34.4235 21.4559 34.0002C21.4533 33.835 21.4497 33.6699 21.445 33.5048C21.3987 31.8229 21.3987 31.8229 22.0672 31.0898C22.1097 31.0393 22.1522 30.9888 22.1959 30.9368C22.3136 30.8032 22.4359 30.6796 22.5645 30.5566C22.6101 30.5121 22.6556 30.4676 22.7026 30.4217C23.1042 30.0366 23.5336 29.6941 23.9757 29.3572C24.3178 29.0961 24.6484 28.8218 24.9793 28.5469C25.4513 28.1557 25.9283 27.7727 26.4123 27.3965C26.7382 27.1419 27.0546 26.8781 27.3685 26.6089C28.9902 25.2206 28.9902 25.2206 29.9384 25.2403C30.3571 25.2827 30.6772 25.4016 30.9574 25.7232C31.1765 26.061 31.2299 26.3489 31.1727 26.7422C30.9562 27.1183 30.6966 27.389 30.3626 27.6599C30.316 27.6986 30.2693 27.7372 30.2212 27.7771C29.8467 28.0857 29.4651 28.3853 29.0821 28.6833C28.6328 29.0336 28.1941 29.3963 27.7556 29.7599C27.33 30.1119 26.8988 30.4557 26.4602 30.7913C26.1777 31.0097 25.9136 31.2323 25.6766 31.5C25.6485 31.7623 25.6485 31.7623 25.7586 31.9922C25.9466 32.1094 25.9466 32.1094 26.1688 32.1562C26.3411 32.1018 26.3411 32.1018 26.4969 31.9768C26.5609 31.9303 26.6249 31.8837 26.6908 31.8358C26.9831 31.6036 27.2687 31.364 27.5517 31.1206C27.8703 30.8467 28.1953 30.5836 28.5272 30.3259C29.0897 29.8884 29.6397 29.4365 30.1883 28.9817C30.3868 28.8172 30.5863 28.6543 30.7882 28.494C31.4356 27.9776 31.9456 27.5492 32.1366 26.7217C32.1798 26.073 31.9591 25.5837 31.6649 25.0195C31.7215 24.9646 31.7781 24.9097 31.8365 24.8531C32.05 24.6456 32.2624 24.4369 32.4745 24.2279C32.5657 24.1383 32.6573 24.049 32.7492 23.96C33.3218 23.4047 33.8351 22.8633 34.2078 22.1484C34.2386 22.0897 34.2693 22.031 34.301 21.9705C34.642 21.2763 34.8162 20.5537 34.9996 19.8067C35.0346 19.6672 35.0696 19.5277 35.1047 19.3882C35.1966 19.0223 35.2874 18.6562 35.378 18.29C35.4688 17.9235 35.5605 17.5572 35.6522 17.191C35.6881 17.0473 35.724 16.9037 35.76 16.76C35.8302 16.4791 35.9005 16.1982 35.9708 15.9173C35.9877 15.8498 36.0046 15.7824 36.0219 15.7128C36.055 15.5806 36.0881 15.4484 36.1212 15.3162C36.1937 15.0262 36.266 14.7362 36.3372 14.4459C36.4026 14.1793 36.4691 13.913 36.5358 13.6466C36.5534 13.5734 36.5709 13.5002 36.589 13.4248C36.7055 12.9661 36.8465 12.5729 37.2286 12.2669C37.7446 12.0137 38.1941 11.9565 38.7401 12.156Z" fill="var(--fill-0, white)"/>
<path id="Vector_4" d="M24.1995 12.0585C24.3533 12.1457 24.3533 12.1457 24.4456 12.3046C24.5121 12.586 24.5265 12.6914 24.4456 12.9609C24.2362 13.2661 23.9921 13.5359 23.7445 13.8099C23.5461 14.0351 23.3631 14.272 23.1792 14.5092C23.1031 14.6066 23.0269 14.704 22.9507 14.8014C22.8748 14.8989 22.7988 14.9963 22.7229 15.0937C22.2372 15.7162 21.748 16.3357 21.2515 16.9496C21.1845 17.0327 21.1845 17.0327 21.1163 17.1175C20.5127 17.8611 20.5127 17.8611 20.2004 17.9391C19.5034 17.7917 18.907 16.9503 18.4214 16.4626C18.3468 16.3883 18.2722 16.314 18.1953 16.2375C18.1245 16.1666 18.0537 16.0957 17.9808 16.0226C17.9167 15.9584 17.8525 15.8942 17.7865 15.828C17.5992 15.6275 17.5591 15.5426 17.5293 15.268C17.5549 15.0117 17.5549 15.0117 17.6831 14.8168C17.8905 14.6786 18.0349 14.6242 18.2852 14.6301C18.6971 14.758 18.9863 15.1569 19.2725 15.4628C19.3801 15.5743 19.3801 15.5743 19.4899 15.6881C19.6666 15.8715 19.8418 16.0562 20.0159 16.2421C20.3432 16.133 20.4716 15.9181 20.6721 15.6525C20.7535 15.5469 20.8349 15.4412 20.9163 15.3356C20.9577 15.2815 20.999 15.2274 21.0417 15.1717C21.2277 14.9289 21.4163 14.6882 21.6052 14.4477C21.6416 14.4013 21.678 14.3549 21.7155 14.3071C22.1421 13.7648 22.5769 13.2291 23.0144 12.6956C23.0933 12.5993 23.1717 12.5028 23.2498 12.4059C23.5737 12.0078 23.6921 11.9343 24.1995 12.0585Z" fill="var(--fill-0, white)"/>
</g>
</svg>
