<svg preserveAspectRatio="none" width="100%" height="100%" overflow="visible" style="display: block;" viewBox="0 0 24 24" fill="none" xmlns="http://www.w3.org/2000/svg">
<g id="Simplification">
<path id="Vector" d="M22.5322 3.03223C22.5894 3.03098 22.5894 3.03098 22.6478 3.02971C23.0468 3.0302 23.3455 3.14699 23.636 3.42206C23.9011 3.72174 23.9401 4.0402 23.9269 4.43243C23.8842 4.76555 23.7551 5.01233 23.4932 5.22363C23.1859 5.44308 22.8723 5.50138 22.5029 5.50488C21.2792 5.54428 20.1282 5.83865 19.0312 6.375C19.0001 6.39011 18.969 6.40521 18.937 6.42078C17 7.37352 15.5668 9.13434 14.8594 11.1562C14.7888 11.3886 14.7288 11.6234 14.6719 11.8594C14.7127 11.8407 14.7536 11.822 14.7957 11.8028C15.9503 11.2892 17.2366 11.2237 18.4307 11.6602C18.9688 11.8688 19.4373 12.1385 19.875 12.5156C19.9061 12.5399 19.9371 12.5642 19.9691 12.5892C20.8244 13.2783 21.3591 14.3973 21.5156 15.4687C21.6013 16.9495 21.3423 18.2206 20.3438 19.3594C19.4971 20.2995 18.3742 20.8777 17.1008 20.9597C15.776 21.0167 14.6125 20.6409 13.5938 19.7812C13.5661 19.7604 13.5384 19.7396 13.5099 19.7181C12.6531 19.0542 12.1234 17.8749 11.9872 16.8227C11.948 16.4747 11.9456 16.1287 11.9453 15.7787C11.9451 15.7137 11.9449 15.6486 11.9448 15.5836C11.9445 15.4475 11.9444 15.3113 11.9444 15.1752C11.9444 15.038 11.9441 14.9008 11.9435 14.7636C11.9318 12.2368 12.3318 9.72663 13.875 7.64062C13.9104 7.59253 13.9458 7.54443 13.9823 7.49487C14.5677 6.71225 15.2131 5.99369 15.9844 5.39062C16.0288 5.35419 16.0733 5.31775 16.1191 5.28021C17.9077 3.84523 20.25 3.06183 22.5322 3.03223Z" fill="var(--fill-0, white)"/>
<path id="Vector_2" d="M11.6373 3.32428C11.9055 3.59638 12.0391 3.87323 12.0509 4.2561C12.0276 4.70011 11.8812 4.97661 11.5541 5.27142C11.2474 5.46162 10.9333 5.50283 10.5791 5.50781C8.42112 5.58131 6.53825 6.46448 4.96875 7.92188C4.94095 7.94713 4.91316 7.97239 4.88452 7.99841C4.59726 8.27062 4.36086 8.58981 4.125 8.90625C4.10523 8.93257 4.08545 8.9589 4.06508 8.98602C3.44185 9.8283 3.0452 10.8091 2.76563 11.8125C2.89261 11.7824 3.0148 11.7461 3.13788 11.7028C3.17302 11.6907 3.20815 11.6786 3.24435 11.6661C3.31658 11.6411 3.38873 11.6158 3.46078 11.5903C4.57908 11.2074 5.84767 11.3092 6.90747 11.82C6.96446 11.8485 7.02135 11.8773 7.07812 11.9062C7.12767 11.9313 7.17722 11.9564 7.22827 11.9822C8.28609 12.5596 9.10351 13.5755 9.45321 14.7283C9.55801 15.1086 9.64126 15.4956 9.65625 15.8906C9.65812 15.933 9.66 15.9755 9.66193 16.0192C9.68913 17.2258 9.29329 18.3375 8.53125 19.2656C8.50599 19.2986 8.48073 19.3315 8.45471 19.3654C7.70815 20.2939 6.49824 20.8102 5.34375 20.9531C4.10482 21.0568 2.85344 20.7227 1.87244 19.9475C0.928567 19.1313 0.249884 18.0865 0.0937501 16.8281C0.0755542 16.5327 0.0782484 16.2363 0.0780031 15.9404C0.0777008 15.8538 0.0773853 15.7672 0.0770575 15.6806C0.0764982 15.4992 0.0763222 15.3178 0.076378 15.1364C0.0763856 14.9531 0.0757428 14.7697 0.0744554 14.5864C0.055864 11.8985 0.581792 9.36956 2.29688 7.21875C2.32993 7.17669 2.36298 7.13464 2.39703 7.09131C3.44376 5.78338 4.75321 4.72746 6.28125 4.03125C6.31479 4.0158 6.34834 4.00036 6.3829 3.98444C7.55452 3.45082 10.4762 2.33965 11.6373 3.32428Z" fill="var(--fill-0, white)"/>
</g>
</svg>
