<svg preserveAspectRatio="none" width="100%" height="100%" overflow="visible" style="display: block;" viewBox="0 0 42 42" fill="none" xmlns="http://www.w3.org/2000/svg">
<g id="Simplification" clip-path="url(#clip0_40000010_652)">
<path id="Vector" d="M38.0471 -0.0307838C38.1477 -0.0314356 38.2483 -0.0320874 38.352 -0.032759C38.6423 -0.0342047 38.9325 -0.033784 39.2228 -0.0327064C39.3099 -0.0331926 39.3969 -0.0336788 39.4866 -0.0341797C40.2675 -0.0269439 40.8714 0.116472 41.4482 0.658791C41.8443 1.11046 42.0086 1.62366 42.0132 2.21702C42.014 2.29947 42.0148 2.38192 42.0156 2.46687C42.0161 2.60065 42.0161 2.60065 42.0167 2.73713C42.0172 2.83018 42.0178 2.92322 42.0184 3.01909C42.0198 3.3218 42.0204 3.62451 42.0205 3.92722C42.0206 4.03005 42.0206 4.13288 42.0207 4.23882C42.0194 5.76799 41.9833 7.26315 41.7539 8.77732C41.7398 8.87364 41.7258 8.96996 41.7112 9.0692C40.7993 15.1727 38.3229 20.5637 34.0828 25.0534C33.9551 25.1898 33.8294 25.3277 33.7039 25.4662C33.3118 25.8984 32.9206 26.3181 32.4719 26.6931C32.3078 26.8351 32.1585 26.9862 32.0076 27.1421C31.6191 27.5351 31.1931 27.8744 30.7617 28.2187C30.6675 28.2956 30.5734 28.3727 30.4794 28.4498C28.806 29.8155 27.0005 30.9667 25.1016 31.9922C24.6835 31.6421 24.2917 31.2759 23.9071 30.8896C23.8174 30.8 23.8174 30.8 23.7259 30.7086C23.5269 30.5097 23.3281 30.3105 23.1293 30.1113C22.9862 29.9681 22.8431 29.825 22.6999 29.6819C22.3924 29.3744 22.085 29.0667 21.7777 28.759C21.3334 28.314 20.8889 27.8693 20.4443 27.4246C19.7229 26.7031 19.0017 25.9813 18.2806 25.2594C17.5804 24.5585 16.8801 23.8576 16.1797 23.1568C16.1365 23.1136 16.0932 23.0703 16.0487 23.0258C15.8319 22.8089 15.6151 22.5919 15.3982 22.375C13.6012 20.5771 11.8044 18.7789 10.0078 16.9804C10.1108 16.7723 10.2139 16.5642 10.3173 16.3562C10.3461 16.2979 10.3749 16.2396 10.4045 16.1796C10.6616 15.663 10.9496 15.1708 11.2588 14.6836C11.3117 14.5996 11.3647 14.5156 11.4192 14.429C11.8377 13.7727 12.2827 13.1442 12.7641 12.5328C12.8782 12.3876 12.9907 12.2414 13.1029 12.0948C13.8221 11.1603 14.5785 10.2525 15.4251 9.43037C15.577 9.27845 15.7147 9.12145 15.8525 8.95676C16.2296 8.51778 16.6634 8.13824 17.092 7.75089C17.2178 7.63685 17.3425 7.52172 17.4672 7.4065C17.9452 6.96582 18.4341 6.54882 18.9492 6.15232C18.9954 6.11661 19.0416 6.08089 19.0891 6.04409C23.2728 2.81806 28.0068 1.00837 33.2227 0.246072C33.3121 0.232523 33.4015 0.218975 33.4937 0.205016C35.0073 -0.0145796 36.5204 -0.025469 38.0471 -0.0307838ZM24.0685 9.26534C23.0653 10.5445 22.5389 12.0691 22.6406 13.6992C22.8637 15.4571 23.6311 16.8929 24.9836 18.0571C25.932 18.7853 27.1025 19.2845 28.3008 19.3594C28.3651 19.3637 28.4294 19.368 28.4956 19.3725C30.2328 19.4319 31.8538 18.7601 33.122 17.5864C34.3146 16.3081 34.9221 14.7408 34.9019 12.9968C34.8487 11.5182 34.2983 10.2045 33.3047 9.10545C33.2533 9.04739 33.2019 8.98934 33.149 8.92953C32.093 7.80244 30.5501 7.15603 29.0204 7.10365C27.0881 7.07774 25.3527 7.80516 24.0685 9.26534Z" fill="var(--fill-0, white)"/>
<path id="Vector_2" d="M8.94313 19.2773C9.17395 19.3826 9.34254 19.4922 9.52173 19.6712C9.56925 19.7183 9.61676 19.7654 9.66572 19.8139C9.7428 19.8916 9.7428 19.8916 9.82144 19.9708C9.90427 20.0532 9.90427 20.0532 9.98877 20.1373C10.1741 20.3219 10.3588 20.5072 10.5435 20.6924C10.676 20.8247 10.8086 20.957 10.9412 21.0893C11.3016 21.4489 11.6614 21.809 12.0211 22.1692C12.397 22.5456 12.7734 22.9215 13.1496 23.2975C13.8218 23.9694 14.4936 24.6416 15.1652 25.3141C15.7746 25.9242 16.3844 26.534 16.9946 27.1434C17.7029 27.8507 18.4108 28.5584 19.1184 29.2664C19.4931 29.6414 19.8679 30.0162 20.2429 30.3907C20.5953 30.7426 20.9473 31.0949 21.2989 31.4475C21.4284 31.5773 21.5581 31.7068 21.6879 31.8362C21.8642 32.0122 22.0401 32.1886 22.2159 32.3652C22.268 32.4169 22.3201 32.4687 22.3738 32.522C22.7244 32.8758 22.7244 32.8758 22.7244 33.0586C18.1477 34.9816 18.1477 34.9816 16.5555 34.3855C15.9674 34.1095 15.5527 33.7383 15.0987 33.279C15.021 33.2018 14.9431 33.1247 14.8652 33.0476C14.6556 32.8399 14.4474 32.6309 14.2394 32.4216C14.0204 32.2017 13.8005 31.9827 13.5808 31.7636C13.212 31.3956 12.8442 31.0268 12.4768 30.6575C12.0535 30.2319 11.6286 29.8078 11.203 29.3844C10.8362 29.0194 10.4701 28.6536 10.1047 28.2871C9.8871 28.0689 9.66925 27.851 9.45066 27.6337C9.24509 27.4294 9.04057 27.224 8.83678 27.0179C8.72708 26.9074 8.61637 26.7979 8.50564 26.6884C7.94849 26.1216 7.48938 25.5174 7.4922 24.6914C7.52822 22.9483 8.13275 20.8129 8.94313 19.2773Z" fill="var(--fill-0, white)"/>
<path id="Vector_3" d="M30.6797 31.2539C30.6982 31.9935 30.6502 32.7257 30.5926 33.4625C30.5772 33.6625 30.5636 33.8627 30.5499 34.0628C30.4457 35.4679 30.1597 36.4506 29.0772 37.4026C28.7699 37.6575 28.4437 37.8752 28.1085 38.0913C28.0008 38.1619 28.0008 38.1619 27.8909 38.2339C27.6588 38.3858 27.4261 38.5369 27.1934 38.688C26.9506 38.8464 26.708 39.0051 26.4654 39.1638C26.3023 39.2704 26.1392 39.3771 25.976 39.4836C25.4638 39.8183 24.9539 40.1562 24.4463 40.4978C24.3838 40.5398 24.3214 40.5817 24.257 40.625C24.0221 40.7829 23.7871 40.941 23.5528 41.0999C23.3955 41.2066 23.2377 41.3127 23.0799 41.4187C22.9925 41.4779 22.9051 41.5371 22.815 41.5981C22.137 42.0101 21.5442 42.0757 20.7539 42C20.2244 41.8607 19.7331 41.5697 19.4211 41.1113C19.0474 40.4325 18.9603 39.7151 18.8467 38.9597C18.8257 38.8274 18.8045 38.6951 18.7832 38.5629C18.6874 37.9595 18.6037 37.3576 18.5391 36.75C18.9084 36.617 19.2805 36.5239 19.6618 36.4342C23.5409 35.5134 27.1338 33.7573 30.356 31.4247C30.5977 31.2539 30.5977 31.2539 30.6797 31.2539Z" fill="var(--fill-0, white)"/>
<path id="Vector_4" d="M10.747 11.3212C10.469 11.764 10.1877 12.2032 9.8932 12.6352C7.80506 15.713 6.17928 19.175 5.46691 22.8394C5.45262 22.9096 5.43834 22.9797 5.42361 23.0519C5.4119 23.1136 5.40018 23.1752 5.38811 23.2386C5.3699 23.2852 5.35169 23.3318 5.33293 23.3798C5.00507 23.489 4.7285 23.4251 4.3947 23.3737C4.32618 23.3634 4.25766 23.3531 4.18706 23.3426C4.04165 23.3206 3.8963 23.2983 3.75099 23.2757C3.53152 23.2418 3.31186 23.2096 3.09213 23.1774C0.973046 22.8579 0.973046 22.8579 0.308517 21.9903C0.0560709 21.5486 -0.0259638 21.1597 -0.0349884 20.6522C-0.0382664 20.552 -0.0415445 20.4517 -0.0449219 20.3484C0.0114419 19.5776 0.606865 18.8785 1.02629 18.2631C1.15698 18.0697 1.28727 17.8761 1.41754 17.6824C1.45319 17.6295 1.48884 17.5766 1.52557 17.5221C1.85179 17.037 2.17296 16.5486 2.49356 16.0597C2.54619 15.9796 2.59882 15.8994 2.65305 15.8168C2.86577 15.4926 3.07847 15.1685 3.29064 14.844C3.44081 14.6144 3.59136 14.385 3.74197 14.1557C3.78636 14.0876 3.83075 14.0195 3.87649 13.9493C4.51884 12.9733 5.20542 11.9478 6.39934 11.6493C6.86233 11.5687 7.32578 11.5246 7.79387 11.4852C7.87919 11.4778 7.96451 11.4704 8.05242 11.4628C8.33361 11.4387 8.61485 11.4156 8.89616 11.3929C8.98552 11.3857 9.07487 11.3785 9.16693 11.3711C9.69482 11.3312 10.2176 11.3118 10.747 11.3212Z" fill="var(--fill-0, white)"/>
<path id="Vector_5" d="M31.0009 10.1991C31.7874 10.8312 32.249 11.562 32.4849 12.5517C32.5845 13.6564 32.4339 14.662 31.7443 15.5638C31.0141 16.4083 30.1267 16.8958 29.0101 16.9994C27.9823 17.0386 26.9009 16.6823 26.1403 15.9791C25.3673 15.1478 24.9871 14.1573 25.0024 13.0257C25.0901 11.8924 25.5957 11.0228 26.4146 10.2549C27.7461 9.23096 29.645 9.21343 31.0009 10.1991Z" fill="var(--fill-0, white)"/>
<path id="Vector_6" d="M9.70735 31.9725C10.0429 32.2535 10.1492 32.458 10.2457 32.8851C10.2821 33.3081 10.1536 33.6173 9.89383 33.9433C9.51294 34.3758 9.11435 34.7874 8.70675 35.1948C8.6008 35.3011 8.6008 35.3011 8.49271 35.4096C8.30086 35.6021 8.10882 35.7944 7.91667 35.9866C7.7964 36.107 7.67618 36.2274 7.55599 36.3478C7.13607 36.7685 6.71594 37.1889 6.2956 37.6092C5.9046 38.0001 5.51406 38.3915 5.12373 38.7832C4.78752 39.1205 4.451 39.4574 4.11423 39.7941C3.91354 39.9948 3.71298 40.1956 3.51273 40.3967C3.28977 40.6206 3.06616 40.8439 2.84248 41.067C2.74365 41.1666 2.74365 41.1666 2.64281 41.2681C2.58165 41.3289 2.52048 41.3897 2.45747 41.4524C2.40475 41.5052 2.35204 41.5579 2.29773 41.6123C1.86551 41.9903 1.53829 42.0449 0.976791 42.0297C0.656551 41.9906 0.481313 41.8939 0.248123 41.6727C0.0349187 41.372 -0.0368764 41.1539 -0.0441132 40.7858C-0.0476027 40.7057 -0.0510922 40.6257 -0.0546875 40.5432C0.0912632 39.8613 0.759919 39.3327 1.23636 38.8586C1.30939 38.7853 1.38241 38.7119 1.45764 38.6364C1.65623 38.4371 1.85533 38.2383 2.05455 38.0396C2.26371 37.8308 2.47247 37.6217 2.68129 37.4126C3.03163 37.062 3.38231 36.7117 3.73319 36.3616C4.13834 35.9573 4.54289 35.5525 4.94714 35.1473C5.29518 34.7985 5.64353 34.4501 5.99216 34.1019C6.19998 33.8943 6.4077 33.6866 6.61512 33.4787C6.84613 33.2471 7.07781 33.0162 7.30956 32.7854C7.41204 32.6824 7.41204 32.6824 7.51659 32.5773C7.57995 32.5144 7.6433 32.4515 7.70857 32.3867C7.76321 32.3322 7.81784 32.2776 7.87414 32.2214C8.44353 31.7224 9.0277 31.6135 9.70735 31.9725Z" fill="var(--fill-0, white)"/>
<path id="Vector_7" d="M13.1237 35.5199C13.4847 35.7071 13.6938 35.8865 13.8619 36.2582C13.9796 36.6655 13.9278 37.0145 13.7799 37.4066C13.6429 37.5881 13.521 37.73 13.3599 37.8851C13.3172 37.9282 13.2745 37.9712 13.2305 38.0156C13.0903 38.1562 12.9484 38.2951 12.8064 38.4339C12.708 38.5318 12.6097 38.6298 12.5115 38.7279C12.3061 38.9326 12.0999 39.1364 11.893 39.3397C11.628 39.6 11.3644 39.8618 11.1013 40.1242C10.8986 40.3262 10.6954 40.5278 10.4921 40.7292C10.3947 40.8256 10.2974 40.9221 10.2003 41.0187C10.0644 41.1534 9.92805 41.2875 9.7915 41.4215C9.75152 41.4613 9.71153 41.5011 9.67034 41.5421C9.33583 41.8682 9.09129 42.0238 8.62219 42.0311C8.2277 42.0218 8.00867 41.9428 7.70959 41.6722C7.36694 41.3025 7.34344 40.9884 7.33789 40.5059C7.42864 40.0307 7.78332 39.6909 8.11424 39.357C8.15337 39.3174 8.1925 39.2777 8.23282 39.2368C8.36101 39.1071 8.48979 38.9779 8.61867 38.8489C8.70879 38.7582 8.79891 38.6676 8.88901 38.5769C9.07744 38.3875 9.26621 38.1984 9.45518 38.0095C9.69653 37.7682 9.93674 37.5258 10.1767 37.283C10.3622 37.0956 10.5486 36.9089 10.7351 36.7225C10.824 36.6334 10.9126 36.5441 11.0009 36.4545C11.1247 36.3291 11.2495 36.2047 11.3747 36.0806C11.4453 36.0098 11.5159 35.9389 11.5886 35.866C12.0682 35.4738 12.5244 35.3594 13.1237 35.5199Z" fill="var(--fill-0, white)"/>
<path id="Vector_8" d="M6.13737 28.3571C6.40417 28.6391 6.55372 28.9099 6.57092 29.3049C6.52673 29.9451 6.18942 30.3352 5.7442 30.7812C5.68491 30.841 5.68491 30.841 5.62442 30.9019C5.49503 31.032 5.36506 31.1615 5.23503 31.291C5.1443 31.3818 5.0536 31.4727 4.96292 31.5635C4.77343 31.7533 4.58364 31.9427 4.39365 32.1319C4.15035 32.3743 3.90781 32.6174 3.66547 32.8607C3.47858 33.0482 3.29129 33.2353 3.10389 33.4223C3.01428 33.5118 2.9248 33.6014 2.83545 33.6911C2.71061 33.8164 2.58525 33.9411 2.45975 34.0657C2.35303 34.1722 2.35303 34.1722 2.24415 34.2809C1.85631 34.6269 1.54954 34.6535 1.0415 34.6427C0.617424 34.5935 0.40977 34.3787 0.133711 34.0736C-0.0425808 33.7075 -0.0824077 33.3759 0.000410167 32.9764C0.215086 32.6232 0.457408 32.3334 0.746943 32.0394C0.787541 31.998 0.82814 31.9566 0.869969 31.9139C1.00307 31.7784 1.13678 31.6436 1.27061 31.5089C1.31655 31.4625 1.36249 31.416 1.40983 31.3682C1.65268 31.1229 1.89599 30.8781 2.13971 30.6337C2.39054 30.3819 2.63982 30.1287 2.88876 29.8751C3.08132 29.6795 3.27498 29.485 3.46896 29.2908C3.56133 29.1979 3.6533 29.1046 3.74483 29.0109C3.87317 28.8798 4.003 28.7503 4.13329 28.621C4.20663 28.5471 4.27996 28.4732 4.35551 28.397C4.93597 27.9632 5.53582 27.9961 6.13737 28.3571Z" fill="var(--fill-0, white)"/>
</g>
<defs>
<clipPath id="clip0_40000010_652">
<rect width="42" height="42" fill="white"/>
</clipPath>
</defs>
</svg>
