<svg preserveAspectRatio="none" width="100%" height="100%" overflow="visible" style="display: block;" viewBox="0 0 42 42" fill="none" xmlns="http://www.w3.org/2000/svg">
<g id="Simplification">
<path id="Vector" d="M21.2465 2.05107C21.5038 2.19707 21.5616 2.25804 21.6567 2.54326C21.6647 2.70691 21.6677 2.87082 21.6682 3.03466C21.6687 3.13737 21.6691 3.24008 21.6696 3.3459C21.6697 3.45993 21.6698 3.57396 21.6699 3.68799C21.6703 3.80791 21.6707 3.92783 21.6711 4.04776C21.6722 4.37368 21.6727 4.69959 21.6731 5.02551C21.6733 5.22906 21.6737 5.43261 21.674 5.63616C21.6752 6.27283 21.676 6.9095 21.6763 7.54617C21.6766 8.2815 21.6781 9.01683 21.6805 9.75216C21.6822 10.3204 21.6831 10.8886 21.6832 11.4568C21.6832 11.7962 21.6837 12.1357 21.6852 12.4752C21.6865 12.7944 21.6867 13.1136 21.686 13.4328C21.6859 13.55 21.6863 13.6672 21.6871 13.7844C21.6882 13.9443 21.6875 14.1042 21.6868 14.2641C21.687 14.3984 21.687 14.3984 21.6872 14.5353C21.6528 14.7948 21.5911 14.9074 21.4106 15.094C21.2516 15.1398 21.2516 15.1398 21.0709 15.1476C21.004 15.1517 20.937 15.1559 20.8681 15.1603C20.7967 15.1638 20.7253 15.1673 20.6518 15.1709C19.0139 15.2954 17.6993 15.9622 16.5707 17.1448C15.4991 18.426 15.0459 20.0036 15.1762 21.6565C15.3442 22.9417 15.8664 24.054 16.7348 25.0198C16.7783 25.0709 16.8217 25.122 16.8665 25.1746C17.7648 26.1616 19.2397 26.7879 20.5678 26.8521C22.2201 26.8828 23.8007 26.4565 25.0177 25.2884C25.6924 24.606 26.1397 23.856 26.4965 22.969C26.5226 22.9046 26.5488 22.8402 26.5757 22.7739C26.8032 22.1229 26.83 21.4215 26.8862 20.7388C26.9067 20.5901 26.9067 20.5901 26.9887 20.4261C27.4059 20.287 27.8501 20.3288 28.2868 20.3288C28.4592 20.3287 28.6317 20.3272 28.8041 20.3256C28.9141 20.3254 29.0241 20.3252 29.134 20.3251C29.2338 20.3248 29.3336 20.3245 29.4365 20.3241C29.6817 20.343 29.8181 20.3791 30.0239 20.5081C30.0874 22.8267 29.5536 25.0575 27.9731 26.8245C27.9159 26.8924 27.8587 26.9603 27.7997 27.0302C26.3516 28.7125 24.2694 29.7793 22.0668 30.0237C19.6239 30.1574 17.1227 29.7002 15.2412 28.0238C15.0509 27.8471 14.8666 27.6653 14.684 27.4808C14.6137 27.4106 14.5434 27.3405 14.4709 27.2683C14.3734 27.1704 14.3734 27.1704 14.2739 27.0706C14.1972 26.9951 14.1972 26.9951 14.1191 26.9181C12.4689 25.1856 11.897 22.7925 11.9485 20.4668C12.0387 18.2664 12.958 16.289 14.4379 14.6839C14.4847 14.6305 14.5314 14.5771 14.5796 14.5221C15.9561 13.029 18.0271 12.1931 20.0058 11.9243C20.1783 11.9124 20.1783 11.9124 20.2621 11.8128C20.2704 11.6933 20.2731 11.5735 20.2735 11.4538C20.2739 11.3763 20.2744 11.2987 20.2748 11.2189C20.2749 11.1331 20.275 11.0474 20.2751 10.9591C20.2755 10.8693 20.2759 10.7795 20.2763 10.6871C20.2772 10.4914 20.2779 10.2957 20.2785 10.1C20.2794 9.79041 20.281 9.48087 20.2828 9.17131C20.2879 8.2909 20.2924 7.41049 20.2951 6.53006C20.2967 5.99223 20.2997 5.45441 20.3033 4.91659C20.3045 4.71132 20.3052 4.50606 20.3055 4.30079C20.3059 4.01366 20.3078 3.72656 20.31 3.43943C20.3096 3.31182 20.3096 3.31182 20.3093 3.18163C20.3177 2.45351 20.3177 2.45351 20.5903 2.1331C20.8207 2.01788 20.9912 2.03065 21.2465 2.05107Z" fill="var(--fill-0, white)"/>
<path id="Vector_2" d="M31.8427 20.322C31.944 20.3209 31.944 20.3209 32.0473 20.3199C32.1573 20.32 32.1573 20.32 32.2696 20.3201C32.3474 20.3195 32.4251 20.319 32.5053 20.3184C32.7625 20.3169 33.0198 20.3165 33.277 20.3164C33.4558 20.3158 33.6346 20.3153 33.8134 20.3147C34.1882 20.3137 34.5629 20.3134 34.9377 20.3135C35.4181 20.3135 35.8984 20.3113 36.3787 20.3085C36.748 20.3066 37.1172 20.3063 37.4865 20.3064C37.6636 20.3062 37.8407 20.3055 38.0178 20.3042C38.2654 20.3026 38.513 20.3031 38.7606 20.3041C38.8338 20.3031 38.907 20.3022 38.9824 20.3013C39.3218 20.3047 39.4962 20.3167 39.7907 20.5C39.9501 20.672 39.9501 20.672 39.9988 20.839C39.9779 21.2906 39.9779 21.2906 39.8458 21.4694C39.6715 21.5985 39.5778 21.6062 39.3624 21.6086C39.2939 21.6099 39.2255 21.6113 39.155 21.6127C39.0814 21.6129 39.0079 21.6132 38.932 21.6135C38.8563 21.6148 38.7806 21.616 38.7025 21.6174C38.4604 21.6213 38.2183 21.6235 37.9762 21.6257C37.7338 21.6286 37.4914 21.632 37.249 21.6357C37.0981 21.638 36.9471 21.6397 36.7962 21.6409C36.694 21.6422 36.694 21.6422 36.5897 21.6435C36.5296 21.644 36.4695 21.6445 36.4075 21.6451C36.2504 21.6476 36.2504 21.6476 36.0946 21.7384C36.0485 21.9395 36.0485 21.9395 36.0241 22.1855C36.0065 22.3266 36.0065 22.3266 35.9886 22.4706C35.9762 22.5725 35.9638 22.6743 35.951 22.7792C35.5296 25.939 34.2794 28.9209 32.0751 31.2541C31.9824 31.3631 31.8901 31.4725 31.7982 31.5822C30.107 33.5035 27.1182 35.4361 24.5135 35.7113C24.3224 35.714 24.1426 35.7137 23.954 35.6838C23.8124 35.5422 23.86 35.3526 23.8587 35.1596C23.8579 35.0651 23.8571 34.9707 23.8563 34.8733C23.856 34.7705 23.8556 34.6676 23.8553 34.5616C23.8548 34.4567 23.8543 34.3518 23.8539 34.2437C23.853 34.0212 23.8525 33.7988 23.8522 33.5763C23.8518 33.2912 23.8498 33.006 23.8475 32.7209C23.8456 32.4492 23.8454 32.1775 23.845 31.9058C23.844 31.8033 23.843 31.7007 23.842 31.5951C23.8422 31.5001 23.8424 31.4052 23.8427 31.3073C23.8424 31.2236 23.8421 31.1398 23.8418 31.0536C23.8719 30.8439 23.8719 30.8439 23.9799 30.6998C24.2044 30.5341 24.4611 30.4408 24.7179 30.3363C27.3095 29.2365 29.2113 27.3466 30.3524 24.7736C30.7202 23.8344 30.9738 22.87 31.0426 21.8628C31.0489 21.7811 31.0553 21.6994 31.0618 21.6152C31.0741 21.4496 31.0849 21.2839 31.094 21.1181C31.0994 21.0419 31.1049 20.9656 31.1106 20.8871C31.1167 20.7835 31.1167 20.7835 31.123 20.678C31.1727 20.508 31.1727 20.508 31.3185 20.4167C31.5088 20.3407 31.6391 20.3229 31.8427 20.322Z" fill="var(--fill-0, white)"/>
<path id="Vector_3" d="M7.07296 23.8489C7.16248 23.8481 7.252 23.8474 7.34423 23.8465C7.4413 23.8466 7.53837 23.8467 7.63838 23.8468C7.73771 23.8464 7.83704 23.8461 7.93937 23.8457C8.14976 23.8452 8.36016 23.8452 8.57055 23.8456C8.89319 23.8458 9.21577 23.8439 9.5384 23.8418C9.74246 23.8416 9.94653 23.8416 10.1506 23.8416C10.2475 23.8409 10.3444 23.8401 10.4442 23.8394C10.5789 23.8401 10.5789 23.8401 10.7163 23.8409C10.7954 23.8409 10.8745 23.8408 10.956 23.8407C11.1903 23.8767 11.2596 23.9322 11.4019 24.1175C11.4797 24.2716 11.4797 24.2716 11.5464 24.445C11.5846 24.5412 11.5846 24.5412 11.6235 24.6392C11.6502 24.7073 11.6769 24.7754 11.7044 24.8456C12.1183 25.8615 12.6561 26.7267 13.3706 27.5629C13.4251 27.6293 13.4796 27.6957 13.5357 27.7641C15.092 29.5937 17.4798 30.742 19.8511 31.0082C20.1502 31.0277 20.4496 31.04 20.7491 31.0506C21.3239 31.0778 21.3239 31.0778 21.5738 31.2543C21.7135 31.5338 21.6686 31.8533 21.669 32.1609C21.6694 32.2378 21.6698 32.3148 21.6702 32.3941C21.6714 32.6496 21.672 32.9051 21.6725 33.1605C21.6729 33.3377 21.6734 33.5149 21.6739 33.6921C21.6747 34.064 21.6752 34.4359 21.6755 34.8078C21.6759 35.2844 21.6779 35.7611 21.6803 36.2378C21.6818 36.6039 21.6822 36.9701 21.6823 37.3362C21.6826 37.5119 21.6832 37.6877 21.6843 37.8634C21.6857 38.1093 21.6856 38.3551 21.685 38.601C21.6858 38.6736 21.6865 38.7463 21.6873 38.8212C21.6847 39.2093 21.6648 39.4716 21.4097 39.7855C21.1531 39.9138 20.9539 39.8968 20.6714 39.8675C20.4116 39.6365 20.3232 39.4479 20.2985 39.1096C20.2951 38.973 20.2935 38.8363 20.2933 38.6996C20.2919 38.6273 20.2906 38.5551 20.2892 38.4806C20.2852 38.2508 20.2835 38.021 20.2818 37.7911C20.2795 37.6349 20.277 37.4787 20.2744 37.3225C20.2683 36.9404 20.2643 36.5583 20.2613 36.1761C20.0623 36.0766 19.8813 36.0717 19.6621 36.0537C15.7345 35.7149 12.1293 33.7424 9.55703 30.7857C8.1758 29.1239 6.27587 26.2811 6.48001 24.0355C6.69222 23.8233 6.77774 23.8503 7.07296 23.8489Z" fill="var(--fill-0, white)"/>
<path id="Vector_4" d="M17.7192 6.23423C17.8637 6.37879 17.8139 6.58486 17.8157 6.78101C17.8173 6.93008 17.8173 6.93008 17.8189 7.08216C17.8195 7.19042 17.8201 7.29868 17.8208 7.41022C17.8211 7.46504 17.8214 7.51987 17.8218 7.57635C17.8235 7.86651 17.8247 8.15666 17.8254 8.44683C17.8263 8.74688 17.8292 9.04688 17.8324 9.34692C17.8345 9.57732 17.8352 9.8077 17.8355 10.0381C17.8361 10.2026 17.8383 10.367 17.8405 10.5315C17.8401 10.6813 17.8401 10.6813 17.8398 10.8342C17.8402 10.9223 17.8407 11.0104 17.8412 11.1012C17.8012 11.3202 17.8012 11.3202 17.652 11.466C17.454 11.577 17.2505 11.6656 17.0401 11.7503C14.5781 12.7415 12.7147 14.7375 11.6617 17.146C11.5457 17.4449 11.4435 17.7464 11.3464 18.0519C11.3214 18.1302 11.3214 18.1302 11.296 18.2101C11.0651 18.967 10.9636 19.72 10.9055 20.5077C10.8928 20.6752 10.8799 20.8426 10.8667 21.0101C10.8586 21.1195 10.8586 21.1195 10.8503 21.2312C10.8286 21.41 10.8286 21.41 10.7465 21.5741C10.521 21.6515 10.313 21.6661 10.076 21.6651C10.0083 21.665 9.94071 21.6649 9.87104 21.6647C9.79757 21.6642 9.72409 21.6637 9.64839 21.6631C9.53149 21.6627 9.53149 21.6627 9.41224 21.6623C9.1546 21.6613 8.89697 21.6596 8.63934 21.6577C8.55136 21.6571 8.46338 21.6566 8.37273 21.656C7.90749 21.6529 7.44225 21.6493 6.97701 21.6453C6.49593 21.6412 6.01486 21.6391 5.53377 21.6374C5.16417 21.6357 4.79459 21.6326 4.42499 21.6291C4.2476 21.6277 4.0702 21.6268 3.8928 21.6265C3.64494 21.6259 3.39718 21.6233 3.14934 21.6202C3.07586 21.6204 3.00238 21.6207 2.92668 21.621C2.4313 21.6118 2.4313 21.6118 2.17003 21.4222C2.00451 21.1767 1.99788 21.0441 2.05121 20.7538C2.21697 20.5264 2.34937 20.3692 2.63159 20.3047C2.84031 20.2882 3.0457 20.2847 3.25508 20.2856C3.33097 20.2844 3.40686 20.2831 3.48506 20.2818C3.72661 20.2783 3.96808 20.2776 4.20965 20.277C4.37377 20.2751 4.53789 20.273 4.702 20.2707C5.10357 20.2655 5.50508 20.2629 5.90668 20.2616C6.0032 19.939 6.08932 19.629 6.12617 19.2942C6.1346 19.2231 6.14303 19.1519 6.15171 19.0787C6.16052 19.0038 6.16933 18.9288 6.1784 18.8517C6.59947 15.5943 8.01052 12.7251 10.2543 10.3358C10.2951 10.2922 10.3359 10.2486 10.378 10.2037C11.82 8.67576 15.4316 5.64013 17.7192 6.23423Z" fill="var(--fill-0, white)"/>
<path id="Vector_5" d="M33.06 5.08605C33.225 5.21175 33.296 5.28351 33.3382 5.48832C33.3389 5.54702 33.3395 5.60573 33.3402 5.66622C33.3416 5.733 33.3429 5.79979 33.3443 5.8686C33.3447 5.97628 33.3447 5.97628 33.3451 6.08613C33.3471 6.197 33.3471 6.197 33.349 6.31011C33.3529 6.54638 33.3552 6.78262 33.3573 7.01891C33.3603 7.25548 33.3636 7.49204 33.3674 7.72859C33.3696 7.87584 33.3714 8.0231 33.3726 8.17036C33.3663 8.52614 33.3663 8.52614 33.4701 8.85949C33.5703 8.86068 33.6704 8.86188 33.7736 8.86311C34.1455 8.86787 34.5173 8.87421 34.889 8.88102C35.0499 8.88374 35.2108 8.88604 35.3717 8.88791C35.603 8.89066 35.8343 8.89495 36.0656 8.89954C36.1734 8.90033 36.1734 8.90033 36.2834 8.90113C36.7799 8.91311 36.7799 8.91311 37.0394 9.05085C37.2507 9.28746 37.259 9.44825 37.2436 9.76183C36.8156 10.4143 36.1324 10.967 35.5811 11.5172C35.4759 11.6225 35.3706 11.7278 35.2654 11.8332C35.046 12.0527 34.8264 12.2721 34.6068 12.4913C34.3252 12.7724 34.0441 13.0538 33.763 13.3354C33.5463 13.5524 33.3293 13.7693 33.1123 13.986C33.0085 14.0898 32.9048 14.1936 32.8011 14.2975C32.6566 14.4422 32.5119 14.5866 32.3671 14.7309C32.3244 14.7738 32.2817 14.8167 32.2377 14.8608C31.7671 15.3287 31.7671 15.3287 31.4939 15.3589C31.3949 15.358 31.3949 15.358 31.294 15.357C31.2189 15.3568 31.1439 15.3566 31.0666 15.3563C30.945 15.355 30.945 15.355 30.8211 15.3537C30.6492 15.3542 30.4773 15.3548 30.3053 15.3555C30.0346 15.3558 29.7639 15.3553 29.4932 15.3526C29.2316 15.3504 28.9703 15.3518 28.7088 15.3537C28.5885 15.3512 28.5885 15.3512 28.4658 15.3486C28.0538 15.3544 27.7997 15.3904 27.4927 15.6765C27.4364 15.7286 27.38 15.7807 27.3219 15.8344C27.2664 15.8878 27.2109 15.9412 27.1537 15.9962C27.1042 16.0438 27.0546 16.0914 27.0036 16.1404C26.8525 16.288 26.7034 16.4373 26.5547 16.5872C26.4989 16.6432 26.443 16.6991 26.3855 16.7568C26.2655 16.877 26.1457 16.9974 26.0259 17.1178C25.8365 17.3083 25.6468 17.4985 25.4571 17.6887C25.0551 18.0916 24.6535 18.4948 24.2519 18.8981C23.7846 19.3672 23.3173 19.8362 22.8496 20.3049C22.6625 20.4925 22.4756 20.6804 22.2888 20.8683C22.1748 20.9826 22.0608 21.0968 21.9468 21.2111C21.8948 21.2636 21.8427 21.3161 21.7891 21.3702C21.3467 21.8125 21.3467 21.8125 20.9245 21.8461C20.6166 21.841 20.6166 21.841 20.4271 21.6871C20.3141 21.4186 20.2892 21.2907 20.3451 21.0001C20.6765 20.5455 21.0975 20.1662 21.5179 19.7959C21.6354 19.6909 21.7529 19.5857 21.8703 19.4804C21.9316 19.4254 21.993 19.3704 22.0562 19.3137C22.4559 18.9517 22.848 18.5814 23.2404 18.2116C23.5826 17.8898 23.9273 17.5724 24.2805 17.2628C26.1316 15.6903 26.1316 15.6903 26.9215 13.4882C26.949 12.9673 26.934 12.4543 26.893 11.9346C26.8867 11.8549 26.8805 11.7752 26.8741 11.6931C26.8604 11.544 26.8431 11.3951 26.8215 11.2469C26.7878 10.9473 26.7732 10.7498 26.9338 10.4873C27.081 10.3165 27.2354 10.1621 27.3998 10.0079C27.485 9.91977 27.5699 9.83137 27.6546 9.74271C27.7409 9.6559 27.8275 9.56931 27.9142 9.48291C27.962 9.43494 28.0099 9.38697 28.0591 9.33755C28.2148 9.18152 28.3708 9.02578 28.5268 8.87006C28.6359 8.76086 28.7451 8.65164 28.8542 8.54242C29.0816 8.31484 29.3092 8.0874 29.537 7.86007C29.8292 7.56833 30.121 7.27621 30.4128 6.98398C30.6374 6.759 30.8623 6.53422 31.0873 6.30949C31.195 6.20178 31.3027 6.09401 31.4104 5.98618C31.5602 5.83617 31.7102 5.68643 31.8604 5.53676C31.9049 5.49206 31.9494 5.44737 31.9953 5.40132C32.3797 5.01913 32.5196 4.97229 33.06 5.08605Z" fill="var(--fill-0, white)"/>
<path id="Vector_6" d="M21.4094 16.1602C21.6645 16.4592 21.6889 16.7189 21.6862 17.1035C21.6872 17.2393 21.6872 17.2393 21.6882 17.3778C21.626 17.87 21.3164 18.1598 20.9691 18.4888C20.882 18.5734 20.795 18.658 20.708 18.7427C20.5721 18.874 20.436 19.0049 20.2992 19.1352C19.3673 20.0173 19.3673 20.0173 18.9843 21.2102C19.0191 21.7711 19.2859 22.3326 19.6867 22.7227C20.2262 23.0737 20.6745 23.2684 21.3274 23.2149C22.167 22.9839 22.7532 22.297 23.3291 21.6816C23.4425 21.5616 23.5559 21.4416 23.6693 21.3217C23.7458 21.2399 23.8216 21.1574 23.8966 21.0743C24.5224 20.3836 24.5224 20.3836 24.9397 20.2848C25.3136 20.2774 25.5242 20.2979 25.8391 20.5078C26.1224 21.6413 25.6537 22.7985 25.0854 23.7634C24.3778 24.8233 23.2936 25.4957 22.0647 25.7857C20.7636 26.0253 19.4747 25.8047 18.3508 25.0942C17.2613 24.3276 16.4743 23.2345 16.2414 21.9024C16.0967 20.2705 16.3918 18.9494 17.4475 17.6713C18.3634 16.7056 20.0399 15.8298 21.4094 16.1602Z" fill="var(--fill-0, white)"/>
</g>
</svg>
